<?xml version="1.0" encoding="UTF-8"?>
<svg id="Layer_2" data-name="Layer 2" xmlns="http://www.w3.org/2000/svg" viewBox="0 0 752.68 554.18">
  <defs>
    <style>
      .cls-1 {
        fill: #fff;
      }
    </style>
  </defs>
  <g id="Layer_1-2" data-name="Layer 1">
    <g>
      <path class="cls-1" d="M744.93,363.49l-14.67,46.19-26.76,32.75-40.32,26.63-88.71,16.87-42.15-1.69-5.57,5-11.66,43.62-10.83,20.03-84.12-37.99-170.82-47.65-185.84-23.1,25.6-112.17-18.64-15.88-23.46-21.02-22.48-71.36s-3.42-8.31-4.41-21.51c-.98-13.19,1.97-27.85,1.97-27.85,0,0,1.46-15.65,3.91-25.92,2.44-10.27,9.98-30.29,9.98-30.29l11.53-29.82,11.24-15.64,27.85-17.11c27.87-17.1-3.42,1.95,11.73-4.88,15.16-6.85,6.36-1.95,17.11-4.41,10.38-2.35,26.23-4.26,27.31-4.38-.23.07-.46.32,15.71-.99,18.08-1.46,43,2.44,43,2.44l51.82,31.77,31.66-17.53c-.79.5-4.06,2.6,17.7-9.83,21.39-12.23,21.72-12.89,21.55-12.89,1.01-.57,18.78-10.67,27.32-14,8.8-3.42,18.58-1.46,18.58-1.46l8.14,1.21c4.39.65,11.2,1.64,21.68,3.19,29.81,4.41,34.21,11.08,34.21,11.08l18.56,10.42,26.88,23.95,10.27,13.7,6.85,47.41,21.46-4.11,24.48-4.69,37.06-3.4c-.17.06.75.52,23.55,3.89,26.4,3.91-4.39-.98,28.36,8.8,32.75,9.78,19.05,10.75,19.05,10.75l22,15.15,27.87,37.14,5.37,40.09-26.52,43.12,17.23,15.65,33.37,26.76,15.03,43.99Z"/>
      <path d="M752.6,355.23c-.09-1.5-.18-3-.26-4.48-.09-1.48-.39-3.1-.59-4.63-1.86-12.39-6.36-22.94-11.51-31.8-5.17-8.89-11.03-16.25-16.87-22.23-1.39-1.56-2.94-2.88-4.35-4.25-.72-.67-1.42-1.33-2.12-1.98-.7-.64-1.45-1.21-2.15-1.81-1.43-1.16-2.8-2.28-4.11-3.35-1.39-.99-2.72-1.94-3.99-2.85-2.99-2.08-5.75-3.77-8.19-5.13,2.44-3.89,4.58-8.11,6.43-12.57,4.53-10.93,6.94-23.34,7.03-36.13.08-12.79-1.94-26.06-6.75-38.98-4.66-12.52-11.3-24.56-19.61-35.45-8.28-10.92-18.4-20.48-29.52-28.42-2.73-2.07-5.68-3.79-8.56-5.61-1.42-.94-2.94-1.71-4.43-2.53-1.5-.81-2.99-1.61-4.48-2.41-3.07-1.43-6.11-2.89-9.22-4.16-1.57-.6-3.14-1.19-4.7-1.78l-2.34-.88c-.79-.27-1.59-.5-2.38-.74-3.19-.95-6.32-2-9.55-2.65-1.6-.36-3.2-.72-4.78-1.08-1.59-.34-3.11-.54-4.65-.82-1.54-.25-3.07-.5-4.6-.75-1.53-.17-3.06-.34-4.57-.51-1.52-.16-3.03-.35-4.53-.47-1.5-.09-3-.18-4.48-.26-11.88-.64-23.16.04-33.43,1.46-18.64,2.59-33.92,7.56-45.07,11.99-.12-1.18-.25-2.36-.43-3.55-.77-6.2-2.08-12.55-3.93-18.94-.87-3.21-2.04-6.39-3.2-9.6-1.32-3.16-2.6-6.38-4.24-9.48-1.5-3.17-3.37-6.18-5.2-9.24-1-1.48-2.01-2.96-3.01-4.45-.98-1.51-2.17-2.87-3.26-4.31l-1.68-2.14c-.58-.69-1.2-1.36-1.8-2.04-1.22-1.34-2.4-2.73-3.68-4.03-2.59-2.54-5.2-5.14-7.95-7.38-5.4-4.72-11.29-8.84-17.37-12.63-12.23-7.45-25.49-13.19-39.16-16.85-6.81-1.94-13.77-3.18-20.69-4.17-1.74-.18-3.48-.36-5.21-.54l-2.6-.25-2.61-.13c-1.74-.08-3.47-.16-5.2-.24-1.73,0-3.46.02-5.18.03-3.44-.05-6.87.3-10.28.51-1.7.1-3.39.39-5.08.58-1.68.24-3.38.39-5.02.7-6.61,1.17-12.94,2.62-18.87,4.45-11.92,3.57-22.6,8.08-32.19,12.83-2.37,1.23-4.75,2.35-6.98,3.62-2.24,1.26-4.42,2.48-6.56,3.68-4.18,2.57-8.18,4.96-11.8,7.5-3.69,2.41-7,4.98-10.11,7.27-3.06,2.4-5.85,4.68-8.36,6.82-2.67,2.3-4.99,4.45-6.98,6.38-10.62-9.09-23.91-16.6-38.75-21.83-15.32-5.4-32.21-8.55-49.95-9.12-4.44-.08-8.94-.09-13.51.21-2.28.08-4.57.38-6.88.63-2.29.29-4.63.43-6.92.87-2.29.42-4.59.85-6.9,1.27l-1.73.33-1.71.43-3.42.88c-4.61,1.05-9.06,2.69-13.59,4.16-2.23.83-4.42,1.76-6.64,2.65l-3.32,1.37-3.24,1.56c-2.15,1.06-4.35,2.05-6.46,3.2-2.1,1.19-4.19,2.37-6.3,3.56-2.14,1.14-4.09,2.57-6.14,3.86-2.02,1.34-4.09,2.61-6,4.11l-5.83,4.38c-1.88,1.54-3.72,3.15-5.57,4.73-.92.8-1.87,1.57-2.76,2.4l-2.63,2.55c-1.73,1.73-3.56,3.36-5.19,5.18l-4.92,5.46c-.84.89-1.6,1.85-2.35,2.82l-2.28,2.89-2.27,2.89c-.77.96-1.41,2.01-2.12,3.01-1.38,2.03-2.77,4.06-4.15,6.09-2.45,4.25-5.13,8.38-7.18,12.85-4.49,8.75-7.91,17.84-10.48,27.04-2.58,9.2-4.33,18.47-5.36,27.65-3.95,36.82,3.81,71.33,14.98,98.31,11.26,27.08,25.06,47.3,35.41,60.94,5.19,6.85,9.57,12.09,12.7,15.75,1.01,1.16,1.87,2.15,2.6,2.99-.53,2.27-2.67,11.42-6.05,25.85-1.84,7.95-4.06,17.5-6.58,28.36-.63,2.72-1.27,5.52-1.94,8.39-.35,1.5-.7,3.03-1.06,4.57-.69,2.85-1.38,5.74-2.09,8.67-2.78,11.57-5.7,23.7-8.74,36.32,16.81,1.7,34.58,3.49,53.14,5.36,5.36.59,10.83,1.19,16.4,1.81,2.79.31,5.6.61,8.43.92,2.83.32,5.68.72,8.55,1.09,5.75.74,11.58,1.5,17.48,2.26,5.91.74,11.85,1.73,17.88,2.59,3.01.45,6.04.9,9.07,1.35,3.04.43,6.09.91,9.14,1.44,6.11,1.02,12.26,2.06,18.45,3.09,6.2.98,12.38,2.24,18.6,3.38,6.21,1.2,12.47,2.25,18.69,3.56,12.43,2.58,24.93,5.04,37.24,7.92,24.71,5.41,48.86,11.69,71.82,17.79,45.82,12.53,86.42,25.8,115.72,35.55,7.31,2.47,13.95,4.65,19.8,6.5,5.81,1.96,10.84,3.58,14.99,4.81,3.17.94,5.83,1.66,7.93,2.12.18-.46.39-.89.66-1.3.46-.69.96-1.35,1.5-1.99h0c1.37-1.6,3.18-4.05,5.21-7.13,3.95-6,8.57-14.46,12.33-23.39,3.81-8.91,6.75-18.23,8.55-25.41.67-2.66,1.21-5.02,1.61-6.95,2.67.51,6.36,1.02,10.95,1.5,10.2,1.02,24.86,1.94,42.63,1.39,8.89-.28,18.55-1,28.77-2.42,10.21-1.38,20.99-3.62,31.95-6.83,10.94-3.28,22.1-7.56,32.91-13.27,5.41-2.83,10.76-5.99,15.9-9.56,2.61-1.72,5.09-3.67,7.62-5.55,2.44-2,4.93-3.96,7.26-6.13,19.05-17.05,33.06-40.07,38.6-64.46,1.37-6.09,2.2-12.25,2.54-18.34.11-1.52.06-3.05.1-4.56,0-1.52.06-3.02-.07-4.53ZM524.18,477.01c-.05.25-.7,8.96-1.92,15.88-1.2,6.92-3.26,15.99-6.03,24.88-2.72,8.9-6.16,17.57-8.92,24.03-1.38,3.25-2.56,5.96-3.31,7.9-1.59-1.04-3.51-2.22-5.77-3.55-3.75-2.2-8.39-4.79-13.84-7.7-5.49-2.81-11.79-5.94-18.79-9.36-28.05-13.53-67.85-30.49-113.42-46.48-45.58-15.9-96.88-30.82-146.95-42.1-6.27-1.38-12.5-2.75-18.69-4.11-3.09-.7-6.18-1.34-9.27-1.94-3.08-.61-6.15-1.22-9.21-1.83-6.12-1.18-12.16-2.48-18.17-3.52-6.01-1.06-11.94-2.11-17.79-3.14-2.93-.5-5.82-1.05-8.71-1.51-2.89-.45-5.75-.89-8.59-1.34-5.68-.88-11.26-1.74-16.73-2.59l-2.05-.32c-.45-.07-.42-.07-.52-.09l-.25-.05-.99-.2c-.63-.13-1.26-.26-1.87-.38-1.13-.24-2.24-.47-3.32-.69.31-.66.57-1.16.8-1.54l.16-.26c.38-1.4.76-2.77,1.13-4.13.78-2.85,1.53-5.62,2.27-8.31,2.93-10.76,5.5-20.22,7.64-28.1,2.92-10.84,5.04-18.69,6.16-22.84,3.67.06,8.62.11,14.71.29,13.28.33,31.92,1.02,54.07,2.57,22.16,1.51,47.83,3.98,75.15,7.57,27.27,3.67,56.4,8.34,84.87,14.35,28.44,6.06,56.25,13.85,81.12,24.01,12.44,5.06,24.13,10.62,34.87,16.58,10.72,5.98,20.49,12.31,29.15,18.64,17.39,12.64,30.15,25.43,38.77,34.76,2.21,2.29,4.06,4.45,5.74,6.29.36.38.69.75,1.03,1.11.31-.96-2.45-3.43-2.54-2.79ZM724.1,377.41c-3.2,18.81-13.32,38.32-28.22,53.38-14.95,15.3-34.37,26.51-53.83,33.96-19.52,7.48-39.11,11.34-56.08,13.78-17,2.4-31.44,3.5-41.56,4.55-3.9.39-7.16.77-9.69,1.16-.08-.34-.19-.72-.32-1.12-.08-.32-.14-.55-.13-.6-.11-.45-.21-.62-.45-1.14-.04-.11-.07-.21-.11-.32-.31-.84-.68-1.77-1.1-2.78-.44-1-.97-2.06-1.54-3.21-1.15-2.3-2.48-4.95-4.23-7.77-6.71-11.41-18.19-26.87-35.11-42.41-8.14-7.53-17.5-15.09-27.92-22.34,9.3-2.01,19.48-5.05,29.14-9.24,1.8-.8,3.61-1.6,5.41-2.39,1.75-.88,3.5-1.77,5.23-2.64,1.74-.84,3.4-1.81,5.04-2.76,1.63-.96,3.27-1.84,4.81-2.85,3.07-2.02,6.06-3.89,8.71-5.95,1.34-1,2.65-1.97,3.88-2.93,1.2-1.01,2.35-1.99,3.47-2.94,8.8-7.64,13.35-13.92,12.43-14.93-1.04-1.16-7.4,2.93-17.13,8.11-1.22.65-2.48,1.32-3.79,2.02-1.33.65-2.71,1.31-4.13,2-2.78,1.44-5.86,2.68-8.96,4.07-1.55.69-3.2,1.26-4.81,1.91-1.62.64-3.26,1.3-4.96,1.84-1.68.58-3.38,1.16-5.08,1.74-1.72.51-3.45,1.01-5.19,1.52-13.86,3.99-28.14,5.83-38.89,6.13-5.8.19-10.56,0-13.79-.19-2.7-1.46-5.43-2.89-8.2-4.29-12.81-6.52-26.48-12.31-40.55-17.58-14.08-5.25-28.6-9.84-43.2-13.98-12.87-3.6-25.76-6.86-38.55-9.85-2.33-1.44-4.7-3.01-7.08-4.72-5.9-4.3-11.8-9.47-17.02-15.31-1.34-1.43-2.56-2.97-3.84-4.46-1.19-1.55-2.44-3.06-3.55-4.65-2.32-3.12-4.38-6.36-6.29-9.57-3.78-6.43-6.78-12.8-8.99-18.45-4.47-11.29-6.18-19.5-7.76-19.36-.71.06-1.27,2.21-1.45,5.99-.2,3.78.12,9.18,1.23,15.6,1.1,6.42,3.17,13.82,6.29,21.48,1.58,3.81,3.38,7.71,5.52,11.53,1.02,1.94,2.2,3.8,3.33,5.71,1.22,1.85,2.41,3.75,3.74,5.55.81,1.15,1.66,2.28,2.52,3.39-4.91-.99-9.79-1.96-14.62-2.88-27.92-5.23-54.27-9.11-77.07-11.77-22.8-2.69-42.05-4.25-55.79-5.18-6.87-.49-12.36-.76-16.24-.98-3.88-.22-6.14-.31-6.55-.32-1.09-.03-2.14.23-3.15.69-.61-.66-1.31-1.4-2.11-2.26-1.45-1.56-3.12-3.5-5.11-5.71-1.92-2.26-4.16-4.8-6.5-7.72-9.47-11.58-21.93-28.58-32.23-50.78-5.05-11.14-9.54-23.43-12.4-36.91-2.95-13.44-4.26-27.96-3.42-42.75.49-7.38,1.53-14.81,3.21-22.16,1.66-7.34,4.01-14.65,7.15-21.56,1.38-3.55,3.36-6.85,5.07-10.3l3.02-4.95c.52-.82.97-1.68,1.54-2.47l1.69-2.38,1.69-2.39c.55-.8,1.12-1.61,1.76-2.35l3.7-4.58c1.23-1.54,2.65-2.91,3.96-4.39l2-2.18c.68-.72,1.42-1.37,2.13-2.06,1.44-1.36,2.85-2.75,4.3-4.09l4.55-3.82c1.48-1.33,3.12-2.44,4.7-3.63,1.61-1.14,3.13-2.44,4.83-3.45l4.99-3.22c1.68-1.05,3.44-1.94,5.15-2.93l2.58-1.45,2.66-1.27c1.78-.83,3.53-1.73,5.33-2.52,3.65-1.41,7.22-3.03,10.95-4.1l2.77-.9,1.38-.45,1.4-.35c1.87-.47,3.74-.94,5.6-1.41,1.86-.5,3.76-.71,5.63-1.08,1.88-.33,3.74-.72,5.65-.91,3.78-.51,7.61-.75,11.42-.95,15.27-.57,30.28,1.09,43.81,4.69,13.1,3.48,24.82,8.83,34.43,15.54-.01.1,0,.21,0,.31,1.68,1.07,3.26,2.31,4.62,3.71.5.39.98.79,1.44,1.22,1.11.76,2.16,1.63,3.11,2.66.06.06.12.12.18.18.29.3.57.6.84.91,1.5.98,2.95,2.08,4.19,3.31,1.72,1.7,3.05,3.58,4.15,5.58.11.1.23.19.34.28,2.27,1.94,3.89,4.49,5.03,7.26.48.8.92,1.62,1.38,2.41.59,1.06,1.17,2.1,1.74,3.12.97,2.13,2.01,4.16,2.86,6.18.78,2.05,1.6,4,2.3,5.9.63,1.94,1.23,3.78,1.8,5.54,2.03,7.12,3.25,12.94,4.13,16.94.83,4.01,1.63,6.2,2.36,6.2s1.4-2.19,1.98-6.4c.54-4.21.72-10.44-.06-18.42-.29-1.99-.59-4.09-.91-6.29-.42-2.19-.98-4.46-1.51-6.85-.62-2.37-1.44-4.79-2.22-7.34-.49-1.24-.98-2.51-1.49-3.79-.15-.35-.29-.71-.43-1.07,1.71-2.07,4.76-5.57,9.45-10.06,1.86-1.74,3.97-3.64,6.28-5.67,2.41-1.95,4.92-4.15,7.83-6.26,2.81-2.22,6-4.34,9.3-6.64,1.7-1.08,3.45-2.19,5.23-3.32,1.77-1.16,3.68-2.16,5.58-3.29,7.66-4.35,16.25-8.54,25.46-11.91,4.6-1.74,9.35-3.1,14.14-4.29,1.2-.32,2.42-.48,3.64-.74,1.23-.21,2.44-.53,3.7-.67,2.52-.29,5.04-.76,7.64-.87,1.3-.09,2.6-.19,3.91-.29,1.32-.02,2.64-.04,3.97-.06l2-.04,2.01.07c1.35.05,2.69.1,4.05.15,5.41.43,10.91.99,16.38,2.16,10.97,2.11,21.83,5.93,31.95,11.07,5.02,2.64,9.93,5.51,14.43,8.86,2.36,1.61,4.39,3.38,6.51,5.1,1.03.88,1.98,1.85,2.98,2.77.49.47,1,.92,1.47,1.4l1.37,1.48c.89,1.01,1.89,1.93,2.71,3,.85,1.04,1.7,2.09,2.54,3.12,1.55,2.19,3.19,4.32,4.54,6.64,1.48,2.24,2.67,4.65,3.95,7,1.13,2.44,2.31,4.84,3.24,7.35,1.97,4.98,3.58,10.09,4.77,15.27.68,2.56,1.1,5.18,1.62,7.75.06.42.13.83.2,1.25-.03.02-.06.03-.09.05.52,1.94.81,3.96.95,6.01.09.43.16.86.2,1.31.3,3.74.42,7.48.56,11.22.11,2.72.55,5.42.71,8.13,0,.01.01.02.02.03,0,.23,0,.45,0,.67.01.32.04.64.04.96,0,.18-.02.34-.02.51.03,2.43.04,4.83.01,7.17-.28,18.63-2,34.46-2.64,45.65-.73,11.2-.46,17.78,1,18.03,1.44.24,3.97-5.72,7.43-16.45,1.71-5.37,3.62-11.95,5.52-19.63,1.84-7.5,3.69-16.06,5.1-25.58.2-.07.4-.13.58-.22.26-.15,1.67-.97,4.09-2.37,2.47-1.31,5.91-3.28,10.4-5.38,8.91-4.28,21.87-9.58,37.94-12.78,8.02-1.6,16.8-2.66,26.06-2.74,1.16,0,2.32-.02,3.5-.03,1.17.01,2.34.1,3.53.15,1.19.05,2.38.11,3.58.16,1.19.12,2.39.24,3.59.36,1.19.13,2.45.2,3.61.38,1.16.19,2.32.37,3.49.56,2.36.28,4.67.93,7.04,1.45.59.14,1.19.26,1.78.41l1.75.54c1.18.35,2.36.71,3.54,1.06,2.35.78,4.67,1.72,7.04,2.6,1.15.52,2.31,1.05,3.46,1.57,1.16.53,2.35,1.01,3.46,1.65,2.25,1.23,4.6,2.34,6.77,3.77,8.87,5.41,17.3,12.16,24.44,20.19,7.16,7.99,13.22,17.05,17.81,26.66,4.44,9.23,7.04,19.49,7.98,29.47.94,10,.1,19.79-2.39,28.56-1.72,6.28-4.32,12.02-7.45,17.13-1.26,1.28-2.33,2.87-3.18,4.71-.28.38-.55.77-.83,1.14-4.91,6.47-10.76,11.51-16.35,15.54-5.63,3.99-11.03,7.05-15.65,9.31-2.27,1.23-4.4,2.15-6.23,3.05-1.84.91-3.4,1.68-4.69,2.32-2.56,1.33-3.88,2.39-3.74,3.1.15.72,1.77,1.09,4.75,1.12,1.49.03,3.32-.03,5.44-.31,2.13-.26,4.59-.55,7.28-1.19,5.44-1.08,11.98-3.1,19.18-6.46,3.56-1.69,7.3-3.74,11.05-6.25.39.42.82.76,1.32.94.12.04.49.17,1.11.4.31.12.68.22,1.11.4.42.2.91.42,1.45.67,2.17.93,5.25,2.44,8.96,4.81.93.6,1.9,1.23,2.92,1.89.98.74,2,1.51,3.07,2.31.53.41,1.09.79,1.63,1.24.53.46,1.06.92,1.61,1.4,1.07.97,2.29,1.86,3.35,3,4.54,4.22,9.17,9.57,13.23,15.87,4.08,6.27,7.47,13.61,8.98,21.22.17.97.44,1.85.55,2.92.12,1.07.23,2.15.35,3.23.16,1.08.16,2.19.21,3.29.03,1.11.14,2.22.11,3.35-.03,4.51-.4,9.14-1.19,13.84Z"/>
    </g>
  </g>
</svg>